# xmcd
#
# Track frame offsets:
#	150
#	12313
#	26501
#	37949
#	55550
#	69114
#	88102
#	104342
#	118374
#	127848
#	143291
#	160805
#	171066
#	188492
#	204927
#
# Disc length: 3019 seconds
#
# Revision: 0
# Processed by: cddbd v1.5.2PL0 Copyright (c) Steve Scherf et al.
# Submitted via: EasyCDDAExtractor 9.1.1.5
#
DISCID=b00bc90f
DTITLE=BettyJean - Sentimental Country
DYEAR=2008
DGENRE=Country
TTITLE0=Funny Face
TTITLE1=Have You Ever Been Lonely
TTITLE2=Silver Threads And Golden Needles
TTITLE3=Grandpa
TTITLE4=Apartment Number 9
TTITLE5=Texas When I Die
TTITLE6=Satin Sheets
TTITLE7=Mama He's Crazy
TTITLE8=Your Good Girl's Gonna Go bad
TTITLE9=All You Wanna Do Is Bring Me Down
TTITLE10=Yellow Roses
TTITLE11=Making Planes
TTITLE12=Hello, Mr Heartache
TTITLE13=Only In My Mind
TTITLE14=Blue Eyes Crying In The Rain
EXTD=
EXTT0=
EXTT1=
EXTT2=
EXTT3=
EXTT4=
EXTT5=
EXTT6=
EXTT7=
EXTT8=
EXTT9=
EXTT10=
EXTT11=
EXTT12=
EXTT13=
EXTT14=
PLAYORDER=
